<?xml version="1.0"?>
<svg xmlns="http://www.w3.org/2000/svg" viewBox="0 0 512 512" width="512" height="512"><g id="Outline"><path d="M480,408v72H32V416H206.67l-21.53,35.884A8,8,0,0,0,192,464H360a47.594,47.594,0,0,0,28.805-9.6L379.2,441.605A31.716,31.716,0,0,1,360,448H280V408h64a8,8,0,0,0,8-8V248h8a32.036,32.036,0,0,1,32,32h16a48.055,48.055,0,0,0-48-48H296V203.875A72.273,72.273,0,0,0,328,144a24,24,0,0,0,.838-47.98l3.6-36.04A40,40,0,0,0,292.641,16H204a27.982,27.982,0,0,0-22.554,44.569A39.876,39.876,0,0,0,180.161,77.7l2.619,18.329A24,24,0,0,0,184,144a72.27,72.27,0,0,0,32,59.875V232H163.313L80.487,149.173A17.786,17.786,0,0,0,68,144a17.689,17.689,0,0,0-12.487,5.173l-34.34,34.34A17.786,17.786,0,0,0,16,196a17.689,17.689,0,0,0,5.173,12.487l47.476,47.475-4.255,21.276-43.525,79.8A39.826,39.826,0,0,0,23.958,400,8,8,0,0,0,16,408v80a8,8,0,0,0,8,8H488a8,8,0,0,0,8-8V408ZM154.343,245.657a25.612,25.612,0,0,1,6.112,9.692,25.94,25.94,0,0,1,.595,15.369,8,8,0,0,0,2.073,7.719L204.686,320,192,332.686l-41.563-41.563a8,8,0,0,0-7.72-2.073,26.041,26.041,0,0,1-14.188-.22l14.626-29.252a7.99,7.99,0,0,0-.1-7.323L152,243.313ZM160,331.313V400H91.313ZM80.95,276.041,87.2,244.818l15.785-10.524,23.286,23.286L108.708,292.7ZM132,240.687l-22.343-22.344a8,8,0,0,0-10.095-1l-24,16a8,8,0,0,0-3.047,3.857L59.313,224,96,187.313,140.687,232Zm-12.549,66.3,1.858-3.717a42.053,42.053,0,0,0,20.854,2.208L152.686,316l-52.013,52.013Zm101.164,85.773A7.993,7.993,0,0,0,216,400v.451L206.129,384h19.742ZM216,431.549V448h-9.871ZM232,448V408h32v40ZM336,344H280v16h56v32H239.729l7.131-11.884A8,8,0,0,0,240,368H192a8,8,0,0,0-6.86,12.116L197.071,400H176V339.314l10.343,10.343a8,8,0,0,0,11.314,0l24-24a8,8,0,0,0,0-11.314l-44.178-44.177A41.779,41.779,0,0,0,176,251.458V248h19.137L248.9,351.683a8,8,0,0,0,14.2,0L316.863,248H336Zm-83.578-80.845a8,8,0,0,0,7.156,0L280,252.944v22.115l-20.421-10.214a8,8,0,0,0-7.158,0L232,275.059V252.944ZM256,280.945l20.453,10.23L256,330.621l-20.453-39.446ZM336,120a8.009,8.009,0,0,1-8,8V112a7.981,7.981,0,0,1,8,8ZM204,32h88.641a24,24,0,0,1,23.88,26.388l-1.23,12.3-3.863-9.659A8,8,0,0,0,304,56H204a12,12,0,0,1,0-24Zm-7.268,48.564L196,75.44a24.114,24.114,0,0,1-.2-4.667,27.884,27.884,0,0,0,6.121,1.142Zm-18.385,45.108A8.008,8.008,0,0,1,184,112v16A7.965,7.965,0,0,1,178.347,125.672ZM200,144V106.216L220.529,72h78.055L312,105.541V144a56,56,0,1,1-112,0Zm32,67.887a72.087,72.087,0,0,0,48,0V232H232ZM32.131,196.639a1.646,1.646,0,0,1,.356-1.812l34.34-34.34a1.608,1.608,0,0,1,.534-.356,1.666,1.666,0,0,1,1.812.356L84.687,176,48,212.687,32.487,197.173A1.608,1.608,0,0,1,32.131,196.639ZM34.915,364.7l40.117-73.547,27.479,16.487L79.276,383.148A23.751,23.751,0,0,1,56.459,400h-.586a23.872,23.872,0,0,1-20.958-35.3Z"/><path d="M228,128a12,12,0,1,0-12-12A12.013,12.013,0,0,0,228,128Z"/><path d="M284,128a12,12,0,1,0-12-12A12.013,12.013,0,0,0,284,128Z"/><path d="M256,176a24.027,24.027,0,0,0,24-24H264a8,8,0,0,1-16,0H232A24.027,24.027,0,0,0,256,176Z"/><path d="M439.782,410.135c-2.767-11.594-6.547-31.334-7.83-43.009l-15.9,1.748c1.369,12.453,5.229,32.646,8.17,44.974Z"/><path d="M402.343,298.343A62.217,62.217,0,0,0,384,342.627h.126A8.067,8.067,0,0,0,384,344a333.234,333.234,0,0,0,9.94,80.746l6.3,25.194A8,8,0,0,0,408,456h48a8,8,0,0,0,7.761-6.06l6.3-25.194A333.234,333.234,0,0,0,480,344a8.067,8.067,0,0,0-.126-1.373H480a62.217,62.217,0,0,0-18.343-44.284A8,8,0,0,0,456,296H408A8,8,0,0,0,402.343,298.343Zm52.195,122.522L449.754,440H414.246l-4.784-19.135A317.338,317.338,0,0,1,400.1,352h63.8A317.338,317.338,0,0,1,454.538,420.865Zm-2-108.865a46.2,46.2,0,0,1,11,24H400.47a46.2,46.2,0,0,1,11-24Z"/></g></svg>
