<?xml version="1.0" encoding="iso-8859-1"?>
<!-- Generator: Adobe Illustrator 19.0.0, SVG Export Plug-In . SVG Version: 6.00 Build 0)  -->
<svg version="1.1" id="Capa_1" xmlns="http://www.w3.org/2000/svg" xmlns:xlink="http://www.w3.org/1999/xlink" x="0px" y="0px"
	 viewBox="0 0 480 480" style="enable-background:new 0 0 480 480;" xml:space="preserve">
<g>
	<g>
		<path d="M144,384c4.416,0,8-3.576,8-8v-16c0-13.232-10.768-24-24-24H80c-13.232,0-24,10.768-24,24v16c0,4.424,3.584,8,8,8h16
			v51.72l-20.44,13.624C57.336,450.832,56,453.328,56,456v16c0,4.424,3.584,8,8,8h80c4.416,0,8-3.576,8-8v-16
			c0-2.672-1.336-5.168-3.56-6.656L128,435.72V384H144z M136,460.28V464H72v-3.72l20.44-13.624C94.664,445.168,96,442.672,96,440
			v-56h16v56c0,2.672,1.336,5.168,3.56,6.656L136,460.28z M120,368H88H72v-8c0-4.416,3.592-8,8-8h48c4.408,0,8,3.584,8,8v8H120z"/>
	</g>
</g>
<g>
	<g>
		<path d="M280,384c4.416,0,8-3.576,8-8v-16c0-13.232-10.768-24-24-24h-48c-13.232,0-24,10.768-24,24v16c0,4.424,3.584,8,8,8h16
			v51.72l-20.44,13.624c-2.224,1.488-3.56,3.984-3.56,6.656v16c0,4.424,3.584,8,8,8h80c4.416,0,8-3.576,8-8v-16
			c0-2.672-1.336-5.168-3.56-6.656L264,435.72V384H280z M272,460.28V464h-64v-3.72l20.44-13.624c2.224-1.488,3.56-3.984,3.56-6.656
			v-56h16v56c0,2.672,1.336,5.168,3.56,6.656L272,460.28z M256,368h-32h-16v-8c0-4.416,3.592-8,8-8h48c4.408,0,8,3.584,8,8v8H256z"
			/>
	</g>
</g>
<g>
	<g>
		<path d="M416,384c4.416,0,8-3.576,8-8v-16c0-13.232-10.768-24-24-24h-48c-13.232,0-24,10.768-24,24v16c0,4.424,3.584,8,8,8h16
			v51.72l-20.44,13.624c-2.224,1.488-3.56,3.984-3.56,6.656v16c0,4.424,3.584,8,8,8h80c4.416,0,8-3.576,8-8v-16
			c0-2.672-1.336-5.168-3.56-6.656L400,435.72V384H416z M408,460.28V464h-64v-3.72l20.44-13.624c2.224-1.488,3.56-3.984,3.56-6.656
			v-56h16v56c0,2.672,1.336,5.168,3.56,6.656L408,460.28z M392,368h-32h-16v-8c0-4.416,3.592-8,8-8h48c4.408,0,8,3.584,8,8v8H392z"
			/>
	</g>
</g>
<g>
	<g>
		<polygon points="0,288 0,304 24,304 24,480 40,480 40,304 440,304 440,480 456,480 456,304 480,304 480,288 		"/>
	</g>
</g>
<g>
	<g>
		<path d="M472,128H8c-4.416,0-8,3.576-8,8v128c0,4.424,3.584,8,8,8h168h32h64h64h40h64h32c4.416,0,8-3.576,8-8V136
			C480,131.576,476.416,128,472,128z M56,224c-4.408,0-8-3.584-8-8v-8h16v8C64,220.416,60.408,224,56,224z M120,224
			c-4.408,0-8-3.584-8-8v-8h16v8C128,220.416,124.408,224,120,224z M200,256h-16v-32h16V256z M328,256h-48v-21.576l14.656-21.984
			c0.872-1.312,1.344-2.864,1.344-4.44h16c0,1.576,0.472,3.128,1.344,4.44L328,234.424V256z M296,192v-16h16v16H296z M432,256h-48
			v-21.576l14.656-21.984c0.872-1.312,1.344-2.864,1.344-4.44h16c0,1.576,0.472,3.128,1.344,4.44L432,234.424V256z M400,192v-16h16
			v16H400z M464,256h-16v-24c0-1.576-0.472-3.128-1.344-4.44L432,205.576V168c0-4.424-3.584-8-8-8h-32c-4.416,0-8,3.576-8,8v37.576
			l-14.656,21.984c-0.872,1.312-1.344,2.864-1.344,4.44v24h-24v-24c0-1.576-0.472-3.128-1.344-4.44L328,205.576V168
			c0-4.424-3.584-8-8-8h-32c-4.416,0-8,3.576-8,8v37.576l-14.656,21.984c-0.872,1.312-1.344,2.864-1.344,4.44v24h-48v-40
			c0-4.424-3.584-8-8-8h-32c-4.416,0-8,3.576-8,8v40h-40v-17.472c9.288-3.312,16-12.112,16-22.528v-16c0-4.424-3.584-8-8-8h-32
			c-4.416,0-8,3.576-8,8v16c0,10.416,6.712,19.216,16,22.528V256H64v-17.472c9.288-3.312,16-12.112,16-22.528v-16
			c0-4.424-3.584-8-8-8H40c-4.416,0-8,3.576-8,8v16c0,10.416,6.712,19.216,16,22.528V256H16V144h448V256z"/>
	</g>
</g>
<g>
	<g>
		<path d="M125.656,66.344L80,20.688V0H64v20.688L18.344,66.344c-2.288,2.288-2.976,5.728-1.736,8.72C17.848,78.056,20.768,80,24,80
			h24v8c0,13.232,10.768,24,24,24s24-10.768,24-24v-8h24c3.232,0,6.152-1.944,7.392-4.936
			C128.632,72.072,127.944,68.632,125.656,66.344z M80,88c0,4.416-3.592,8-8,8s-8-3.584-8-8v-8h16V88z M88,64H56H43.312L72,35.312
			L100.688,64H88z"/>
	</g>
</g>
<g>
	<g>
		<path d="M461.656,66.344L416,20.688V0h-16v20.688l-45.656,45.656c-2.288,2.288-2.976,5.728-1.736,8.72
			C353.848,78.056,356.768,80,360,80h24v8c0,13.232,10.768,24,24,24s24-10.768,24-24v-8h24c3.232,0,6.152-1.944,7.392-4.936
			C464.632,72.072,463.944,68.632,461.656,66.344z M416,88c0,4.416-3.592,8-8,8c-4.408,0-8-3.584-8-8v-8h16V88z M424,64h-32h-12.688
			L408,35.312L436.688,64H424z"/>
	</g>
</g>
<g>
	<g>
		<path d="M293.656,66.344L248,20.688V0h-16v20.688l-45.656,45.656c-2.288,2.288-2.976,5.728-1.736,8.72
			C185.848,78.056,188.768,80,192,80h24v8c0,13.232,10.768,24,24,24s24-10.768,24-24v-8h24c3.232,0,6.152-1.944,7.392-4.936
			C296.632,72.072,295.944,68.632,293.656,66.344z M248,88c0,4.416-3.592,8-8,8c-4.408,0-8-3.584-8-8v-8h16V88z M256,64h-32h-12.688
			L240,35.312L268.688,64H256z"/>
	</g>
</g>
<g>
</g>
<g>
</g>
<g>
</g>
<g>
</g>
<g>
</g>
<g>
</g>
<g>
</g>
<g>
</g>
<g>
</g>
<g>
</g>
<g>
</g>
<g>
</g>
<g>
</g>
<g>
</g>
<g>
</g>
</svg>
