<?xml version="1.0"?>
<svg xmlns="http://www.w3.org/2000/svg" xmlns:xlink="http://www.w3.org/1999/xlink" id="Gradient" viewBox="0 0 512 512" width="512" height="512"><defs><linearGradient id="linear-gradient" x1="256" y1="496" x2="256" y2="16" gradientUnits="userSpaceOnUse"><stop offset="0" stop-color="#12c2e9"/><stop offset="0.5" stop-color="#c471ed"/><stop offset="1" stop-color="#f64f59"/></linearGradient></defs><path d="M472,16H424a8,8,0,0,0-6.247,3l-112.8,141H159.489A63.981,63.981,0,0,0,50.756,122.75,63.984,63.984,0,0,0,130.5,221.891l79.359,95.231A8,8,0,0,0,216,320V436l-60.8,45.6A8,8,0,0,0,160,496H320a8,8,0,0,0,4.8-14.4L264,436V320a8,8,0,0,0,6.146-2.879l120-144A8,8,0,0,0,384,160H325.445l102.4-128H472a8,8,0,0,0,0-16ZM56.884,140.2l19.8,19.8H48.674A47.388,47.388,0,0,1,56.884,140.2ZM48.674,176H76.686l-19.8,19.8A47.406,47.406,0,0,1,48.674,176ZM88,215.326a47.4,47.4,0,0,1-19.8-8.209l19.8-19.8Zm0-66.639-19.8-19.8A47.406,47.406,0,0,1,88,120.674ZM143.326,160H115.314l19.8-19.8A47.394,47.394,0,0,1,143.326,160ZM104,120.674a47.392,47.392,0,0,1,19.8,8.21l-19.8,19.8Zm0,94.647V190.1l16.145,19.374A48.017,48.017,0,0,1,104,215.321ZM296,480H184l42.667-32h26.666Zm-64-48V320h16V432Zm28.253-128H219.747L140.055,208.37a132.109,132.109,0,0,1,22.21,3.44c9.27,2.06,18.857,4.19,37.735,4.19s28.465-2.13,37.735-4.19C246.551,209.851,254.878,208,272,208c16.3,0,23.925,3.388,32.751,7.311,6.282,2.791,13.141,5.838,23.178,7.479ZM366.92,176l-26.609,31.931c-13.808-.477-20.933-3.629-29.062-7.242C302.085,196.617,291.7,192,272,192c-18.879,0-28.465,2.13-37.735,4.19C225.449,198.149,217.122,200,200,200s-25.448-1.851-34.265-3.81C156.465,194.13,146.878,192,128,192h-1.587L113.08,176ZM248,264h16v16H248Zm24-32h16v16H272Zm-56,32h16v16H216Zm32-16H232V232h16Zm-56-16h16v16H192Z" style="fill:url(#linear-gradient)"/></svg>
