<?xml version="1.0" encoding="iso-8859-1"?>
<!-- Generator: Adobe Illustrator 19.0.0, SVG Export Plug-In . SVG Version: 6.00 Build 0)  -->
<svg version="1.1" id="Capa_1" xmlns="http://www.w3.org/2000/svg" xmlns:xlink="http://www.w3.org/1999/xlink" x="0px" y="0px"
	 viewBox="0 0 512 512" style="enable-background:new 0 0 512 512;" xml:space="preserve">
<linearGradient id="SVGID_1_" gradientUnits="userSpaceOnUse" x1="0" y1="257.9999" x2="511.9999" y2="257.9999" gradientTransform="matrix(1 0 0 -1 0 513.9999)">
	<stop  offset="0" style="stop-color:#80D8FF"/>
	<stop  offset="1" style="stop-color:#EA80FC"/>
</linearGradient>
<path style="fill:url(#SVGID_1_);" d="M510.445,73.269C507.329,65.837,500.058,61,491.999,61H20.001
	c-8.059,0-15.33,4.837-18.445,12.269C-1.56,80.701,0.09,89.276,5.74,95.022L236,329.186V411h-30c-11.046,0-20,8.954-20,20
	s8.954,20,20,20h100c11.046,0,20-8.954,20-20s-8.954-20-20-20h-30v-81.814C292.456,312.45,504.819,96.488,506.26,95.022
	C511.91,89.276,513.56,80.701,510.445,73.269z M256,292.475l-85.12-86.563c48.254,1.302,73.05-11.339,94.181-22.084
	C283.875,174.262,300.123,166,334.664,166c17.041,0,29.66,2.015,40.497,5.294L256,292.475z M405.802,140.134
	C387.84,132.164,366.972,126,334.664,126c-44.126,0-67.293,11.779-87.732,22.172C228.118,157.738,211.87,166,177.329,166
	c-28.199,0-44.045-5.593-57.222-11.721L67.717,101h376.567L405.802,140.134z"/>
<g>
</g>
<g>
</g>
<g>
</g>
<g>
</g>
<g>
</g>
<g>
</g>
<g>
</g>
<g>
</g>
<g>
</g>
<g>
</g>
<g>
</g>
<g>
</g>
<g>
</g>
<g>
</g>
<g>
</g>
</svg>
