<svg id="Capa_1" enable-background="new 0 0 512 512" height="512" viewBox="0 0 512 512" width="512" xmlns="http://www.w3.org/2000/svg">
    <g>
        <path d="m446.733 493.929-12.465-96.43c-7.979-61.875-58.042-75.218-98.267-85.939-2.617-.698-5.211-1.389-7.766-2.085-7.818-2.134-11.708-11.933-14.282-18.862 27.304-18.633 49.15-47.437 57.5-76.016 7.217-1.397 14.551-5.343 20.472-11.182 7.217-7.117 11.355-16.054 11.355-24.521v-11.225c0-10.403-8.448-18.867-18.832-18.867h-9.488c-.747-18.604-4.295-35.809-10.581-51.316 8.424-6.503 14.226-16.736 14.226-30.53 0-17.564-16.728-47.29-26.096-59-2.735-3.417-7.101-7.956-13.398-7.956-.005 0-.011 0-.017 0-6.294.008-10.643 4.545-13.367 7.962-4.794 5.979-11.51 16.665-16.932 28.033-16.174-8.272-34.21-12.784-52.66-13.105-.087-.001-.172-.001-.257 0-18.139.306-36.193 4.75-52.213 12.854-3.695 1.87-5.177 6.381-3.307 10.078 1.869 3.697 6.38 5.175 10.078 3.307 13.97-7.066 29.723-10.952 45.564-11.238 16.531.307 32.663 4.449 47.042 12.02-2.111 6.192-3.434 12.097-3.434 17.045 0 11.932 4.347 22.029 12.569 29.202 7.169 6.254 16.732 9.698 26.929 9.698 3.983 0 7.974-.56 11.809-1.651 5.185 13.169 8.203 27.765 8.994 43.569-14.28-2.747-20.951-9.558-27.435-16.177-7.902-8.067-16.855-17.214-36.358-12.18-5.712 1.471-10.527 2.756-14.774 3.89-12.971 3.461-19.48 5.199-25.339 5.199s-12.37-1.738-25.34-5.199c-4.248-1.134-9.063-2.419-14.771-3.889-19.5-5.031-28.459 4.111-36.362 12.179-6.482 6.619-13.155 13.429-27.433 16.177 1.655-33.005 13.017-60.714 33.106-80.523 2.949-2.908 2.983-7.657.075-10.606-2.91-2.952-7.659-2.982-10.606-.075-23.194 22.869-36.127 54.639-37.637 92.232h-9.477c-10.384 0-18.832 8.463-18.832 18.867v11.225c0 8.467 4.139 17.405 11.355 24.521 5.921 5.839 13.254 9.785 20.471 11.182 8.348 28.583 30.193 57.388 57.5 76.019-2.575 6.929-6.464 16.725-14.273 18.857-2.455.667-4.943 1.33-7.454 1.998-16.46 4.382-33.48 8.913-49.098 16.662-3.71 1.841-5.226 6.341-3.385 10.052 1.31 2.64 3.965 4.168 6.725 4.168 1.119 0 2.257-.251 3.328-.783 14.266-7.079 30.545-11.413 46.288-15.604 2.536-.675 5.05-1.344 7.537-2.021.241-.066.473-.143.709-.214l47.267 28.052c7.586 4.443 13.94 6.667 20.299 6.667 6.366 0 12.736-2.229 20.352-6.688l47.229-28.03c.237.072.469.149.711.215 2.584.705 5.204 1.403 7.85 2.108 39.606 10.557 80.561 21.472 87.253 73.367l12.463 96.414c.056.44.092.813.114 1.13-.376.022-.838.037-1.399.037h-69.158v-46.839c0-4.142-3.357-7.5-7.5-7.5s-7.5 3.358-7.5 7.5v46.836h-180.839v-46.839c0-4.142-3.357-7.5-7.5-7.5s-7.5 3.358-7.5 7.5v46.839h-69.13c-.563 0-1.026-.015-1.403-.037.023-.312.061-.681.117-1.113l12.436-96.422c1.984-15.227 6.865-27.497 14.922-37.511 2.597-3.227 2.085-7.948-1.143-10.545-3.228-2.596-7.948-2.085-10.545 1.143-9.698 12.055-15.791 27.187-18.11 44.985l-12.435 96.42c-.494 3.785-.73 9.296 2.91 13.444 3.608 4.11 8.977 4.637 13.251 4.637h349.128c4.262 0 9.616-.525 13.222-4.616 3.641-4.134 3.424-9.649 2.942-13.456zm-132.122-426.974c0-4.405 1.76-10.563 4.435-17.176.14-.288.256-.582.356-.88 4.802-11.592 12.286-24.397 18.034-31.562.005-.006.01-.012.015-.019.716-.897 1.269-1.479 1.666-1.849.401.372.96.955 1.685 1.859 9.183 11.479 22.805 37.375 22.805 49.625 0 10.512-4.991 17.321-11.763 20.885-.006.003-.013.005-.019.008-.083.038-.159.085-.239.126-3.803 1.943-8.145 2.881-12.477 2.881-12.195.002-24.498-7.388-24.498-23.898zm73.669 100.712v11.225c0 4.414-2.575 9.588-6.888 13.841-2.026 1.998-4.296 3.662-6.623 4.906.228-2.413.352-4.81.352-7.183v-26.657h9.327c2.114.002 3.832 1.736 3.832 3.868zm-257.664 25.067c-4.313-4.253-6.888-9.428-6.888-13.841v-11.225c0-2.132 1.719-3.867 3.832-3.867h9.327v26.657c0 2.372.124 4.769.352 7.181-2.326-1.244-4.595-2.906-6.623-4.905zm23.21 13.408c-.024-.116-.055-.228-.084-.342-1.202-5.208-1.855-10.354-1.855-15.343v-27.44c20.988-3.191 30.919-13.328 38.36-20.925 7.411-7.565 10.795-11.019 21.902-8.15 5.647 1.454 10.429 2.73 14.646 3.856 14.235 3.799 21.381 5.707 29.208 5.707 7.826 0 14.971-1.907 29.206-5.707 4.219-1.126 8.999-2.402 14.651-3.857 11.113-2.869 14.489.586 21.898 8.151 7.442 7.597 17.374 17.733 38.36 20.925v27.44c0 5.005-.658 10.17-1.869 15.397-.022.088-.046.174-.065.263-8.062 34.287-40.506 71.271-76.825 84.764-9.49 3.512-17.548 5.147-25.357 5.147-7.81 0-15.868-1.635-25.351-5.144-36.316-13.484-68.754-50.454-76.825-84.742zm114.905 132.697c-10.468 6.13-14.987 6.128-25.414.022l-41.133-24.412c4.296-5.072 7.022-11.088 8.922-15.949 4.68 2.474 9.469 4.643 14.336 6.45 11.209 4.147 20.921 6.079 30.563 6.079s19.354-1.932 30.572-6.083c4.864-1.807 9.649-3.975 14.326-6.448 1.9 4.861 4.626 10.877 8.923 15.95z"/><path d="m233.515 257.167c2.935 2.923 7.684 2.914 10.606-.019 3.173-3.184 7.393-4.938 11.883-4.938 4.491 0 8.711 1.753 11.884 4.938 1.465 1.471 3.389 2.206 5.313 2.206 1.915 0 3.83-.729 5.294-2.187 2.934-2.924 2.942-7.672.019-10.607-6.007-6.029-14.001-9.35-22.509-9.35-8.507 0-16.501 3.321-22.508 9.35-2.925 2.935-2.916 7.684.018 10.607z"/>
        <path d="m231.427 185.218c-2.879-2.979-7.626-3.061-10.605-.183-2.826 2.729-7.603 2.731-10.429 0-2.979-2.879-7.728-2.795-10.605.183-2.878 2.979-2.796 7.727.184 10.605 4.311 4.165 9.974 6.247 15.636 6.247 5.663 0 11.326-2.082 15.637-6.247 2.978-2.878 3.06-7.626.182-10.605z"/>
        <path d="m296.402 202.07c5.663 0 11.326-2.082 15.637-6.247 2.979-2.878 3.062-7.626.184-10.605s-7.626-3.061-10.605-.183c-2.825 2.729-7.602 2.731-10.429 0-2.979-2.879-7.728-2.795-10.605.183-2.878 2.979-2.796 7.727.184 10.605 4.308 4.165 9.971 6.247 15.634 6.247z"/>
    </g>
</svg>